<?xml version="1.0" ?><!DOCTYPE svg  PUBLIC '-//W3C//DTD SVG 1.0//EN'  'http://www.w3.org/TR/2001/REC-SVG-20010904/DTD/svg10.dtd'><svg enable-background="new 0 0 32 32" height="32px" id="Layer_1" version="1.0" viewBox="0 0 32 32" width="32px" xml:space="preserve" xmlns="http://www.w3.org/2000/svg" xmlns:xlink="http://www.w3.org/1999/xlink"><g><path d="M16,24.992c0-4.971,4.029-9,9-9c1.054,0,2.061,0.19,3,0.523V5.992H0v24c0,1.104,0.896,2,2,2h17.349   C17.308,30.342,16,27.821,16,24.992z" fill="#469FCC"/><polygon fill="#434854" points="28,5.992 23,2.992 27,-0.008 1,-0.008 5,2.992 0,5.992  "/><g><polygon fill="#469FCC" points="1,5.393 5,2.992 1,-0.008   "/><polygon fill="#469FCC" points="23,2.992 27,5.393 27,-0.008   "/></g><g opacity="0.2"><polygon points="1,5.392 5,2.991 1,-0.009   "/><polygon points="23,2.991 27,5.392 27,-0.009   "/></g><g opacity="0.1"><polygon fill="#FFFFFF" points="23,2.992 23,5.992 28,5.992   "/><polygon fill="#FFFFFF" points="5,5.992 5,2.992 0,5.992   "/></g><rect height="1" opacity="0.4" width="18" x="5" y="4.992"/><g opacity="0.2"><circle cx="22" cy="9.992" r="2"/><circle cx="6" cy="9.992" r="2"/></g><path d="M22,8.992c-0.553,0-1,0.447-1,1c0,3.866-3.134,7-7,7s-7-3.134-7-7c0-0.553-0.447-1-1-1s-1,0.447-1,1   c0,4.971,4.029,9,9,9s9-4.029,9-9C23,9.439,22.553,8.992,22,8.992z" fill="#EACA44"/><g opacity="0.2"><path d="M6,7.992c-1.104,0-2,0.896-2,2c0,0.174,0.029,0.34,0.07,0.5c0.224-0.861,0.999-1.5,1.93-1.5s1.706,0.639,1.93,1.5    C7.971,10.332,8,10.166,8,9.992C8,8.888,7.104,7.992,6,7.992z"/><path d="M22,7.992c-1.104,0-2,0.896-2,2c0,0.174,0.029,0.34,0.07,0.5c0.224-0.861,0.999-1.5,1.93-1.5s1.706,0.639,1.93,1.5    c0.041-0.16,0.07-0.326,0.07-0.5C24,8.888,23.104,7.992,22,7.992z"/></g><circle cx="25" cy="24.992" fill="#3AAD73" r="7"/><path d="M20.501,17.205C22.046,15.59,23,13.404,23,10.992c0-0.071-0.026-0.134-0.04-0.2   c-0.405,4.596-4.259,8.2-8.96,8.2s-8.555-3.604-8.96-8.2C5.026,10.859,5,10.921,5,10.992c0,4.971,4.029,9,9,9   c1.641,0,3.174-0.446,4.499-1.213C19.087,18.164,19.76,17.635,20.501,17.205z" opacity="0.2"/><path d="M28,23.991h-2v-2c0-0.553-0.447-1-1-1s-1,0.447-1,1v2h-2c-0.553,0-1,0.447-1,1s0.447,1,1,1h2v2   c0,0.553,0.447,1,1,1s1-0.447,1-1v-2h2c0.553,0,1-0.447,1-1S28.553,23.991,28,23.991z" fill="#FFFFFF"/></g><g/><g/><g/><g/><g/><g/></svg>